<svg xmlns="http://www.w3.org/2000/svg" width="22.101" height="24.228" viewBox="0 0 22.101 24.228"><path d="M22.664,12.677c0,6.692-4.948,12.114-11.051,12.114S.563,19.369.563,12.677,5.51.563,11.613.563,22.664,5.989,22.664,12.677ZM11.91,4.568A5.677,5.677,0,0,0,6.716,7.682a.625.625,0,0,0,.121.794L8.383,9.762a.5.5,0,0,0,.743-.1c.8-1.107,1.342-1.749,2.553-1.749.91,0,2.036.642,2.036,1.61,0,.732-.551,1.107-1.45,1.66-1.048.644-2.435,1.446-2.435,3.452v.2a.562.562,0,0,0,.535.586h2.5a.562.562,0,0,0,.535-.586v-.065c0-1.39,3.707-1.448,3.707-5.21A5.271,5.271,0,0,0,11.91,4.568Zm-.3,12.114a2.256,2.256,0,0,0,0,4.494,2.256,2.256,0,0,0,0-4.494Z" transform="translate(-0.563 -0.563)"/></svg>