<svg xmlns="http://www.w3.org/2000/svg" width="18.46" height="15.996" viewBox="0 0 18.46 15.996"><defs><style>.a{opacity:0.36;}</style></defs><path class="a" d="M16.926,9.414l1.515-6.5A.755.755,0,0,0,17.691,2H5.1L4.809.6A.765.765,0,0,0,4.055,0H.769A.76.76,0,0,0,0,.75v.5A.76.76,0,0,0,.769,2h2.24L5.26,12.729a1.741,1.741,0,0,0-.9,1.517,1.8,1.8,0,0,0,3.589,0A1.723,1.723,0,0,0,7.409,13h6.719a1.723,1.723,0,0,0-.539,1.25,1.8,1.8,0,0,0,3.589,0,1.747,1.747,0,0,0-1.012-1.575l.177-.758a.755.755,0,0,0-.75-.916H6.99l-.21-1h9.4a.765.765,0,0,0,.75-.584Z"/></svg>