<svg xmlns="http://www.w3.org/2000/svg" width="12.307" height="12.33" viewBox="0 0 12.307 12.33"><path d="M13.781,2.5H3.526A1.025,1.025,0,0,0,2.5,3.528V13.8A1.025,1.025,0,0,0,3.526,14.83H13.781A1.025,1.025,0,0,0,14.807,13.8V3.528A1.025,1.025,0,0,0,13.781,2.5Zm.128,11.174a.257.257,0,0,1-.256.257h-10a.257.257,0,0,1-.256-.257V3.656A.257.257,0,0,1,3.654,3.4h10a.257.257,0,0,1,.256.257Z" transform="translate(-2.5 -2.5)"/><path d="M12.7,7.4l-.564-.581a.121.121,0,0,0-.09-.039h0a.116.116,0,0,0-.09.039l-3.91,3.946L6.624,9.34a.124.124,0,0,0-.179,0l-.57.572a.128.128,0,0,0,0,.183l1.795,1.8a.567.567,0,0,0,.375.183.594.594,0,0,0,.372-.177h0L12.7,7.584A.137.137,0,0,0,12.7,7.4Z" transform="translate(-3.099 -3.262)"/></svg>