<svg xmlns="http://www.w3.org/2000/svg" width="22.101" height="21.545" viewBox="0 0 22.101 21.545"><path d="M22.664,11.335A10.913,10.913,0,0,1,11.613,22.107,10.913,10.913,0,0,1,.563,11.335,10.916,10.916,0,0,1,11.613.563,10.916,10.916,0,0,1,22.664,11.335ZM11.91,4.124A5.806,5.806,0,0,0,6.716,6.894a.513.513,0,0,0,.121.706L8.383,8.743a.544.544,0,0,0,.743-.092c.8-.984,1.342-1.555,2.553-1.555.91,0,2.036.571,2.036,1.432,0,.651-.551.985-1.45,1.476-1.048.573-2.435,1.286-2.435,3.069v.174a.528.528,0,0,0,.535.521h2.5a.528.528,0,0,0,.535-.521v-.058c0-1.236,3.707-1.288,3.707-4.633C17.1,6.035,14.421,4.124,11.91,4.124Zm-.3,10.772a2,2,0,1,0,2.05,2A2.027,2.027,0,0,0,11.613,14.9Z" transform="translate(-0.563 -0.563)"/></svg>