<svg xmlns="http://www.w3.org/2000/svg" xmlns:xlink="http://www.w3.org/1999/xlink" width="44.305" height="44.389" viewBox="0 0 44.305 44.389"><defs><style>.a{fill:url(#a);}.b,.c{stroke:none;}.c{fill:#54adcc;}</style><linearGradient id="a" x1="0.5" y1="0.747" x2="0.5" y2="1" gradientUnits="objectBoundingBox"><stop offset="0" stop-color="#fff" stop-opacity="0.6"/><stop offset="1" stop-color="gray"/></linearGradient></defs><g class="a"><path class="b" d="M 22.15231704711914 43.88901519775391 C 19.22916793823242 43.88901519775391 16.39371681213379 43.31552505493164 13.72472667694092 42.18449401855469 C 11.1464672088623 41.09190368652344 8.830837249755859 39.52764511108398 6.842146873474121 37.53517532348633 C 4.853396892547607 35.54263305664062 3.292047023773193 33.22247314453125 2.201467037200928 30.6391429901123 C 1.072457075119019 27.96476364135742 0.4999970495700836 25.12358283996582 0.4999970495700836 22.19450378417969 C 0.4999970495700836 19.26542472839355 1.072457075119019 16.42423439025879 2.201467037200928 13.74986362457275 C 3.292047023773193 11.16653347015381 4.853396892547607 8.846373558044434 6.842146873474121 6.853833675384521 C 8.830837249755859 4.861363887786865 11.1464672088623 3.29711389541626 13.72472667694092 2.204523801803589 C 16.39371681213379 1.073483824729919 19.22916793823242 0.5000037550926208 22.15231704711914 0.5000037550926208 C 25.07546615600586 0.5000037550926208 27.91091728210449 1.073483824729919 30.57990646362305 2.204523801803589 C 33.15816879272461 3.29711389541626 35.47379684448242 4.861363887786865 37.46248626708984 6.853833675384521 C 39.45123672485352 8.846373558044434 41.01258850097656 11.16653347015381 42.10316848754883 13.74986362457275 C 43.232177734375 16.42423439025879 43.80463790893555 19.26542472839355 43.80463790893555 22.19450378417969 C 43.80463790893555 32.31967544555664 36.82033538818359 41.03302383422852 26.82007789611816 43.38377380371094 C 25.44490623474121 43.70965194702148 23.78750610351562 43.88901519775391 22.15231704711914 43.88901519775391 Z"/><path class="c" d="M 22.15231704711914 0.9999923706054688 C 19.29656791687012 0.9999923706054688 16.52675628662109 1.560142517089844 13.9198169708252 2.664882659912109 C 11.40117645263672 3.732204437255859 9.13897705078125 5.260414123535156 7.196037292480469 7.207042694091797 C 5.252975463867188 9.153812408447266 3.727535247802734 11.42056274414062 2.662105560302734 13.9443244934082 C 1.559207916259766 16.55682373046875 0.9999961853027344 19.33258438110352 0.9999961853027344 22.19450378417969 C 0.9999961853027344 25.0564136505127 1.559207916259766 27.83217430114746 2.662105560302734 30.44468307495117 C 3.727535247802734 32.96843338012695 5.252975463867188 35.23518371582031 7.196037292480469 37.18195343017578 C 9.13897705078125 39.12858581542969 11.40117645263672 40.65679550170898 13.9198169708252 41.72411346435547 C 16.52675628662109 42.82885360717773 19.29656791687012 43.38900375366211 22.15231704711914 43.38900375366211 C 23.74984741210938 43.38900375366211 25.36629676818848 43.21443557739258 26.70566749572754 42.89703369140625 C 36.47888565063477 40.59965515136719 43.30463790893555 32.08646392822266 43.30463790893555 22.19450378417969 C 43.30463790893555 19.33258438110352 42.74542617797852 16.55682373046875 41.64252853393555 13.9443244934082 C 40.57709503173828 11.42056274414062 39.05165863037109 9.153812408447266 37.10859680175781 7.207042694091797 C 35.16565704345703 5.260414123535156 32.90345764160156 3.732204437255859 30.38481712341309 2.664882659912109 C 27.77787780761719 1.560142517089844 25.00806617736816 0.9999923706054688 22.15231704711914 0.9999923706054688 M 22.15231704711914 -7.62939453125e-06 C 34.3867073059082 -7.62939453125e-06 44.30463790893555 9.936813354492188 44.30463790893555 22.19450378417969 C 44.30463790893555 32.69933319091797 37.02042770385742 41.49961471557617 26.93449783325195 43.87050247192383 C 25.6039867401123 44.1858024597168 23.90183639526367 44.38900375366211 22.15231704711914 44.38900375366211 C 9.917926788330078 44.38900375366211 -3.814697265625e-06 34.45218276977539 -3.814697265625e-06 22.19450378417969 C -3.814697265625e-06 9.936813354492188 9.917926788330078 -7.62939453125e-06 22.15231704711914 -7.62939453125e-06 Z"/></g></svg>